<svg xmlns="http://www.w3.org/2000/svg" width="13" height="9" viewBox="0 0 13 9">
    <path fill="#A6B8C4" fill-rule="nonzero" d="M12.273 8.04a.469.469 0 0 0 .024-.147V2.484a.462.462 0 0 0-.46-.464H9.285v5.757c0 .093-.017.18-.046.263h-.3a.469.469 0 0 0 .024-.147V.464A.462.462 0 0 0 8.503 0H4.496a.462.462 0 0 0-.458.464v7.43c0 .05.008.1.024.146h-.3a.787.787 0 0 1-.046-.263V2.02H1.224a.462.462 0 0 0-.46.464v5.41c0 .05.01.1.025.146H0V9h13v-.96h-.727zM2.14 6.144h-.658V5.48h.658v.665zm0-1.168h-.658V4.31h.658v.666zm0-1.13h-.658V3.18h.658v.666zm1.025 2.298h-.658V5.48h.658v.665zm0-1.168h-.658V4.31h.658v.666zm0-1.13h-.658V3.18h.658v.666zM7.52 8.009H5.59V5.572h1.93v2.437zM6.5 3.482a1.627 1.627 0 0 1-1.617-1.636C4.883.942 5.607.209 6.5.209s1.617.733 1.617 1.637S7.393 3.482 6.5 3.482zm4.175 2.662h-.657V5.48h.657v.665zm0-1.168h-.657V4.31h.657v.666zm0-1.13h-.657V3.18h.657v.666zM11.7 6.144h-.658V5.48h.658v.665zm0-1.168h-.658V4.31h.658v.666zm0-1.13h-.658V3.18h.658v.666zM6.9 1.439h.62v.813H6.9v.627H6.1v-.627h-.62v-.813h.62V.813H6.9v.626z"/>
</svg>
