<svg xmlns="http://www.w3.org/2000/svg" width="96" height="68" viewBox="0 0 96 68">
    <g fill="#0A2C4D" fill-rule="evenodd">
        <path fill-rule="nonzero" stroke="#0A2C4D" stroke-width="5" d="M48 3C23.187 3 3 22.166 3 45.724 3 66.79 18.391 94.405 31.303 113.86c.833 1.255 2.58 1.632 3.902.84 1.322-.79 1.718-2.449.885-3.704C13.418 76.833 8.66 56.644 8.66 45.724 8.659 25.128 26.307 8.372 48 8.372s39.341 16.756 39.341 37.352c0 33.446-41.164 84.437-41.58 84.948-.955 1.174-.727 2.86.51 3.767.515.378 1.124.561 1.728.561.846 0 1.683-.36 2.24-1.044C51.985 131.811 93 81.004 93 45.723 93 22.166 72.813 3 48 3z" opacity=".03"/>
        <path d="M64.571 45A4.571 4.571 0 0 1 60 49.571H37.143a4.571 4.571 0 1 1 0-9.142H60A4.571 4.571 0 0 1 64.571 45z" opacity=".1"/>
    </g>
</svg>
