<?xml version="1.0" encoding="UTF-8"?>
<svg width="8px" height="9px" viewBox="0 0 8 9" version="1.1" xmlns="http://www.w3.org/2000/svg" xmlns:xlink="http://www.w3.org/1999/xlink">
    <!-- Generator: Sketch 55.1 (78136) - https://sketchapp.com -->
    <title>t</title>
    <desc>Created with Sketch.</desc>
    <g id="Lịch-Hẹn" stroke="none" stroke-width="1" fill="none" fill-rule="evenodd" opacity="0.300000012">
        <g id="Lịch-hẹn__OP01_02" transform="translate(-745.000000, -954.000000)" fill="#0A2C4D" fill-rule="nonzero">
            <g id="Round-Buttons-/-Info" transform="translate(434.000000, 932.000000)">
                <g id="Group-8">
                    <g id="Group-2">
                        <path d="M316.271071,26.1250116 L319.006409,28.8598283 C319.164579,29.0182714 319.164579,29.2749541 319.006409,29.4331493 L318.370876,30.068682 C318.212433,30.2268524 317.95575,30.2268524 317.797555,30.068682 L315.06249,27.3335926 L312.327674,30.06893 C312.169231,30.2271003 311.912548,30.2271003 311.754353,30.06893 L311.11882,29.4333972 C310.96065,29.2749541 310.96065,29.0182714 311.11882,28.8600763 L313.853909,26.1250116 L311.11882,23.389947 C310.96065,23.2315039 310.96065,22.9747964 311.11882,22.816626 L311.754105,22.1813412 C311.912548,22.0231709 312.169231,22.0231709 312.327426,22.1813412 L315.06249,24.9164307 L317.797307,22.1810933 C317.95575,22.0229229 318.212433,22.0229229 318.370628,22.1810933 L319.006161,22.816626 C319.164331,22.9750691 319.164331,23.2317518 319.006161,23.389947 L316.271071,26.1250116 Z" id="t"></path>
                    </g>
                </g>
            </g>
        </g>
    </g>
</svg>