<svg xmlns="http://www.w3.org/2000/svg" width="9" height="9" viewBox="0 0 9 9">
    <path fill="#A9B8C3" fill-rule="nonzero" d="M4.5 0a4.5 4.5 0 1 0 0 9 4.5 4.5 0 0 0 0-9zm.31 5.05l-.003.036-.004.026-.008.027-.011.033-.002.005a.308.308 0 0 1-.024.041l-.001.002a.31.31 0 0 1-.033.04l-.01.01a.298.298 0 0 1-.033.027l-.01.008a.311.311 0 0 1-.047.025l-.011.004a.313.313 0 0 1-.113.022l-.012-.001a.313.313 0 0 1-.053-.006l-.016-.005a.316.316 0 0 1-.047-.016l-.005-.002-1.725-.814a.311.311 0 0 1 .265-.563l1.282.605V1.867a.311.311 0 0 1 .622 0V5.05z"/>
</svg>
