<svg xmlns="http://www.w3.org/2000/svg" width="96" height="68" viewBox="0 0 96 68">
    <g fill="#0A2C4D" fill-rule="nonzero">
        <path stroke="#0A2C4D" stroke-width="5" d="M48 3C23.187 3 3 22.166 3 45.724 3 66.79 18.391 94.405 31.303 113.86c.833 1.255 2.58 1.632 3.902.84 1.322-.79 1.718-2.449.885-3.704C13.418 76.833 8.66 56.644 8.66 45.724 8.659 25.128 26.307 8.372 48 8.372s39.341 16.756 39.341 37.352c0 33.446-41.164 84.437-41.58 84.948-.955 1.174-.727 2.86.51 3.767.515.378 1.124.561 1.728.561.846 0 1.683-.36 2.24-1.044C51.985 131.811 93 81.004 93 45.723 93 22.166 72.813 3 48 3z" opacity=".03"/>
        <path d="M57.061 29.145a9.533 9.533 0 0 0-7.203 1.644 1.49 1.49 0 0 1-1.72 0 9.51 9.51 0 0 0-7.204-1.644 9.606 9.606 0 0 0-6.952 5.24 9.645 9.645 0 0 0 .12 8.718 25.87 25.87 0 0 1 3.03 9.564l.38 3.93a4.965 4.965 0 0 0 5.16 4.31 4.969 4.969 0 0 0 4.719-4.791v-4.653c0-.886.717-1.604 1.6-1.604.885 0 1.601.718 1.601 1.604v4.653a4.968 4.968 0 0 0 4.721 4.878 4.966 4.966 0 0 0 5.171-4.396l.38-3.93a25.883 25.883 0 0 1 3.03-9.565 9.64 9.64 0 0 0 .125-8.72 9.6 9.6 0 0 0-6.958-5.238z" opacity=".1"/>
    </g>
</svg>
