<svg xmlns="http://www.w3.org/2000/svg" width="13" height="14" viewBox="0 0 13 14">
    <path fill="#0A2C4D" fill-rule="nonzero" d="M6.5 4.688a2.441 2.441 0 0 1 2.437 2.437A2.441 2.441 0 0 1 6.5 9.563a2.441 2.441 0 0 1-2.438-2.438A2.441 2.441 0 0 1 6.5 4.688zm6.256 2.043a.44.44 0 0 1-.005.79l-2.404 1.201.85 2.55a.439.439 0 0 1-.556.555l-2.549-.85-1.201 2.404a.44.44 0 0 1-.787 0l-1.201-2.404-2.55.85a.439.439 0 0 1-.555-.556l.85-2.551L.244 7.519a.44.44 0 0 1 0-.788l2.404-1.203-.85-2.55a.439.439 0 0 1 .556-.555l2.551.85L6.106.87a.44.44 0 0 1 .788 0l1.203 2.407 2.55-.85c.342-.118.67.21.555.555l-.85 2.55 2.404 1.2zM8.798 9.423a3.253 3.253 0 0 0 0-4.596 3.253 3.253 0 0 0-4.596 0 3.253 3.253 0 0 0 0 4.596 3.253 3.253 0 0 0 4.596 0z"/>
</svg>
