<svg xmlns="http://www.w3.org/2000/svg" width="13" height="14" viewBox="0 0 13 14">
    <path fill="#0A2C4D" fill-rule="nonzero" d="M12.548 6.26a1.029 1.029 0 0 1 .003 1.706l-1.519 1.028.348 1.802c.064.336-.04.681-.282.922-.241.241-.581.35-.921.282l-1.8-.348-1.026 1.521a1.025 1.025 0 0 1-1.701-.003l-1.026-1.52-1.798.347a1.024 1.024 0 0 1-1.203-1.204l.347-1.802L.452 7.963a1.027 1.027 0 0 1 0-1.704L1.97 5.231l-.348-1.803c-.066-.335.041-.678.282-.922.242-.243.584-.347.922-.284l1.798.348 1.025-1.52c.384-.567 1.318-.567 1.702 0l1.025 1.52 1.8-.348a1.025 1.025 0 0 1 1.202 1.206l-.348 1.803 1.518 1.028zM9.681 8.432l1.95-1.323-1.95-1.32.447-2.314-2.31.447L6.5 1.971 5.185 3.92l-2.31-.447.446 2.315-1.95 1.32 1.95 1.321-.447 2.316 2.308-.447L6.5 12.254 7.818 10.3l2.31.447-.447-2.315zM6.5 4.484a2.645 2.645 0 0 1 2.64 2.641 2.645 2.645 0 0 1-2.64 2.64 2.645 2.645 0 0 1-2.64-2.64 2.645 2.645 0 0 1 2.64-2.64zm0 4.063a1.423 1.423 0 0 0 0-2.844 1.423 1.423 0 0 0 0 2.844z" opacity=".3"/>
</svg>
