<svg xmlns="http://www.w3.org/2000/svg" width="13" height="15" viewBox="0 0 13 15">
    <path fill="#0A2C4D" fill-rule="nonzero" d="M4.047 8.625H2.953a.33.33 0 0 1-.328-.328V7.203a.33.33 0 0 1 .328-.328h1.094a.33.33 0 0 1 .328.328v1.094a.33.33 0 0 1-.328.328zM7 8.297a.33.33 0 0 1-.328.328H5.578a.33.33 0 0 1-.328-.328V7.203a.33.33 0 0 1 .328-.328h1.094A.33.33 0 0 1 7 7.203v1.094zm2.625 0a.33.33 0 0 1-.328.328H8.203a.33.33 0 0 1-.328-.328V7.203a.33.33 0 0 1 .328-.328h1.094a.33.33 0 0 1 .328.328v1.094zM7 10.922a.33.33 0 0 1-.328.328H5.578a.33.33 0 0 1-.328-.328V9.828a.33.33 0 0 1 .328-.328h1.094A.33.33 0 0 1 7 9.828v1.094zm-2.625 0a.33.33 0 0 1-.328.328H2.953a.33.33 0 0 1-.328-.328V9.828a.33.33 0 0 1 .328-.328h1.094a.33.33 0 0 1 .328.328v1.094zm5.25 0a.33.33 0 0 1-.328.328H8.203a.33.33 0 0 1-.328-.328V9.828a.33.33 0 0 1 .328-.328h1.094a.33.33 0 0 1 .328.328v1.094zm2.625-7.11v9.625c0 .725-.588 1.313-1.313 1.313H1.312A1.313 1.313 0 0 1 0 13.437V3.813C0 3.088.588 2.5 1.312 2.5h1.313V1.078A.33.33 0 0 1 2.953.75h1.094a.33.33 0 0 1 .328.328V2.5h3.5V1.078A.33.33 0 0 1 8.203.75h1.094a.33.33 0 0 1 .328.328V2.5h1.312c.725 0 1.313.588 1.313 1.313zm-1.313 9.461V5.125H1.312v8.148c0 .09.074.164.165.164h9.296c.09 0 .164-.073.164-.164z" opacity=".3"/>
</svg>
