<svg xmlns="http://www.w3.org/2000/svg" width="13" height="14" viewBox="0 0 13 14">
    <path fill="#0A2C4D" fill-rule="nonzero" d="M12.911 12.53c.12.12.12.313 0 .432l-.574.574a.305.305 0 0 1-.431 0l-3.083-3.082a.312.312 0 0 1-.089-.216v-.335A5.28 5.28 0 0 1 0 5.907 5.28 5.28 0 0 1 5.281.624a5.28 5.28 0 0 1 3.997 8.734h.335c.081 0 .157.03.216.09l3.082 3.082zM5.281 9.97a4.061 4.061 0 0 0 4.063-4.063A4.061 4.061 0 0 0 5.28 1.844 4.061 4.061 0 0 0 1.22 5.906 4.061 4.061 0 0 0 5.28 9.97z" opacity=".3"/>
</svg>
