<svg xmlns="http://www.w3.org/2000/svg" width="16" height="15" viewBox="0 0 16 15">
    <path fill="#0093EE" fill-rule="nonzero" d="M11 10.18l.875-.874a.22.22 0 0 1 .375.156v3.975c0 .725-.588 1.313-1.313 1.313H1.312A1.313 1.313 0 0 1 0 13.437V3.813C0 3.088.588 2.5 1.312 2.5h7.479a.22.22 0 0 1 .156.375l-.875.875a.217.217 0 0 1-.156.063H1.312v9.624h9.625v-3.103c0-.057.022-.112.063-.153zm4.282-5.517l-7.18 7.18-2.472.274a1.13 1.13 0 0 1-1.247-1.247l.274-2.472 7.18-7.18a1.596 1.596 0 0 1 2.261 0l1.182 1.18c.626.627.626 1.641.002 2.265zm-2.701.845l-1.589-1.589-5.08 5.083-.2 1.786 1.786-.2 5.083-5.08zm1.772-2.18l-1.182-1.18a.286.286 0 0 0-.404 0l-.845.844 1.589 1.589.844-.845a.291.291 0 0 0-.002-.407z"/>
</svg>
