<svg xmlns="http://www.w3.org/2000/svg" width="40" height="54" viewBox="0 0 40 54">
    <g fill="none" fill-rule="nonzero">
        <g transform="translate(0 6.111)">
            <path fill="#FDCC9B" d="M16.008 34.552h8.165v9.145h-8.165z"/>
            <path fill="#FCBC85" d="M16.008 35.629s3.434 2.187 8.165 1.68v-2.757h-8.165v1.077z"/>
            <ellipse cx="4.234" cy="20.371" fill="#FCBC85" rx="3.984" ry="4.546"/>
            <ellipse cx="35.947" cy="20.371" fill="#FCBC85" rx="3.984" ry="4.546"/>
            <path fill="#FDCC9B" d="M35.931 11.689c0-6.696-4.9-11.595-15.84-11.595C9.149.094 4.25 4.994 4.25 11.69S3.107 36.02 20.09 36.02c16.984 0 15.841-17.636 15.841-24.332z"/>
            <g transform="translate(10.556 17.222)">
                <ellipse cx="1.819" cy="2.061" fill="#3B2519" rx="1.715" ry="1.878"/>
                <circle cx="1.072" cy="1.231" r="1" fill="#FFF"/>
            </g>
            <path fill="#86461B" d="M9.632 14.628c.81.406 2.113-1.377 5.093.174.543.283.867-2.419-2.327-2.419-2.766 0-3.256 2-2.766 2.245z"/>
            <g transform="translate(26.111 17.222)">
                <ellipse cx="1.907" cy="2.061" fill="#3B2519" rx="1.715" ry="1.878"/>
                <circle cx="1.159" cy="1.231" r="1" fill="#FFF"/>
            </g>
            <path fill="#86461B" d="M30.55 14.628c-.812.406-2.114-1.377-5.094.174-.543.283-.867-2.419 2.327-2.419 2.766 0 3.256 2 2.766 2.245z"/>
            <path fill="#FCBC85" d="M20.09 25.888c-1.694 0-2.714-1.266-2.714-.653 0 .612.49 1.776 2.715 1.776 2.225 0 2.715-1.164 2.715-1.776 0-.612-1.021.653-2.715.653zM20.09 31.52c-.586 0-.939-.439-.939-.227s.17.615.94.615c.77 0 .938-.403.938-.615 0-.212-.353.226-.938.226z"/>
            <path fill="#F7945E" d="M20.09 29.959c-2.685 0-4.303-1.094-4.303-.817 0 .277.777 1.368 4.304 1.368 3.526 0 4.303-1.09 4.303-1.368 0-.277-1.618.817-4.303.817z"/>
        </g>
        <path fill="#D58E64" d="M20.09 44.337c9.39 0 19.841 6.124 19.841 10.288H.25c0-4.164 10.451-10.288 19.842-10.288z"/>
        <path fill="#BF805A" d="M20.09 44.337c-1.997 0-4.042.28-6.024.756.013.017 2.199 2.837 6.025 2.837 3.542 0 5.898-2.415 6.239-2.786-2.05-.509-4.17-.807-6.24-.807z"/>
        <path fill="#FDCC9B" d="M16.008 44.693s1.194 1.481 4.082 1.481c2.889 0 4.083-1.48 4.083-1.48s-4.236-1.543-8.165 0z"/>
        <path fill="#86461B" d="M20.198 0c13.988 0 16.6 5.226 17.254 15.024.654 9.798-.821 13.171-1.799 13.159-.977-.013-.452-11.234-1.794-13.65-2.449-4.408-6.828-1.142-13.661-1.142-6.833 0-11.212-3.266-13.662 1.143-1.342 2.415-.817 13.636-1.794 13.649-.977.012-2.452-3.36-1.799-13.16C3.597 5.227 6.21 0 20.198 0z"/>
        <path fill="#744A25" d="M11.393 45.864C5.224 47.948.25 51.752.25 54.625h11.143v-8.761z"/>
        <path fill="#573514" d="M11.986 54.625v-9.39s-1.592.612-2.143.898l-1.625 8.492h3.768z"/>
        <path fill="#744A25" d="M28.788 45.864c6.169 2.084 11.143 5.888 11.143 8.761H28.788v-8.761z"/>
        <path fill="#573514" d="M28.194 54.625v-9.39s1.593.612 2.144.898l1.625 8.492h-3.769z"/>
    </g>
</svg>
