<svg xmlns="http://www.w3.org/2000/svg" width="45" height="51" viewBox="0 0 45 51">
    <g fill="none" fill-rule="nonzero">
        <path fill="#330C00" d="M22.496 10.7v39.345S.161 52.36.161 41.472c0 0 6 .756 4.771-4.248-1.557-6.343-.686-16.616 0-22.231.686-5.615 17.564-4.293 17.564-4.293z"/>
        <path fill="#330C00" d="M22.424 10.7v39.345s22.335 2.315 22.335-8.573c0 0-5.999.756-4.77-4.248 1.556-6.343.685-16.616 0-22.231-.687-5.615-17.565-4.293-17.565-4.293z"/>
        <path fill="#00B497" d="M22.886 44.194v-5.732s9.099-.276 9.099 5.231l-9.099.501zM22.107 44.194v-5.732s-9.1-.276-9.1 5.231l9.1.501z"/>
        <g transform="translate(4.918 7.869)">
            <path fill="#FDCC9B" d="M13.964 30.593h7.228v8.096h-7.228z"/>
            <path fill="#FCBC85" d="M13.964 31.546s3.04 1.936 7.229 1.488v-2.441h-7.229v.953z"/>
            <ellipse cx="3.541" cy="18.039" fill="#FCBC85" rx="3.527" ry="4.024"/>
            <ellipse cx="31.615" cy="18.039" fill="#FCBC85" rx="3.527" ry="4.024"/>
            <path fill="#FDCC9B" d="M31.6 10.353C31.6 4.426 27.265.09 17.579.09S3.555 4.426 3.555 10.353c0 5.928-1.011 21.54 14.023 21.54 15.035 0 14.023-15.612 14.023-21.54z"/>
            <g transform="translate(9.098 15.246)">
                <ellipse cx="1.65" cy="1.83" fill="#3B2519" rx="1.518" ry="1.663"/>
                <circle cx=".988" cy="1.096" r="1" fill="#FFF"/>
            </g>
            <path fill="#684B37" d="M8.32 13.491c.718.275 1.87-.934 4.509.118.48.192.768-1.64-2.06-1.64-2.45 0-2.883 1.356-2.45 1.522z"/>
            <g transform="translate(22.869 15.246)">
                <ellipse cx="1.727" cy="1.83" fill="#3B2519" rx="1.518" ry="1.663"/>
                <circle cx="1.065" cy="1.096" r="1" fill="#FFF"/>
            </g>
            <path fill="#684B37" d="M26.836 13.491c-.717.275-1.87-.934-4.508.118-.48.192-.768-1.64 2.06-1.64 2.448 0 2.882 1.356 2.448 1.522z"/>
            <path fill="#FCBC85" d="M17.578 22.924c-1.5 0-2.403-1.12-2.403-.579 0 .542.434 1.573 2.403 1.573 1.97 0 2.403-1.03 2.403-1.573 0-.542-.903.579-2.403.579zM17.578 27.908c-.519 0-.831-.387-.831-.2 0 .188.15.544.831.544.682 0 .831-.356.831-.544 0-.187-.312.2-.83.2z"/>
            <path fill="#F7945E" d="M17.578 26.527c-2.377 0-3.81-.968-3.81-.723s.688 1.21 3.81 1.21 3.81-.965 3.81-1.21-1.432.723-3.81.723z"/>
            <circle cx="8.796" cy="22.389" r="2.06" fill="#F9AA8D"/>
            <circle cx="26.614" cy="22.389" r="2.06" fill="#F9AA8D"/>
        </g>
        <path fill="#8FD6E7" d="M22.496 41.714v9.108H6.666c0-3.686 7.518-9.108 15.83-9.108z"/>
        <path fill="#8FD6E7" d="M22.496 41.714v9.108h15.83c0-3.686-7.517-9.108-15.83-9.108z"/>
        <path fill="#F6B1CF" d="M22.496 50.41v-8.696c-2.315 0-4.561.431-6.608 1.118l6.608 7.578z"/>
        <path fill="#F6B1CF" d="M22.496 50.41v-8.696c2.316 0 4.562.431 6.609 1.118l-6.609 7.578z"/>
        <path fill="#F283B4" d="M22.496 41.714c-1.684 0-3.33.231-4.893.617.222 1.352 1.136 4.128 4.893 4.128 3.757 0 4.671-2.776 4.894-4.128a20.443 20.443 0 0 0-4.894-.617z"/>
        <path fill="#FDCC9B" d="M18.882 42.03s0 3.255 3.614 3.255 3.614-3.255 3.614-3.255-3.75-1.366-7.228 0z"/>
        <path fill="#3ABDAA" d="M16.965 42.394c.108-.704-4.21-.185-4.174 1.8.035 1.985 4.77 3.512 6.072 4.235 1.3.723 3.614 2.393 3.614 2.393s.433-1.677-1.59-2.971c-2.024-1.294-4.066-4.517-3.922-5.457z"/>
        <path fill="#3ABDAA" d="M27.975 42.394c-.109-.704 4.21-.185 4.174 1.8-.036 1.985-4.77 3.512-6.072 4.235-1.3.723-3.614 2.393-3.614 2.393s-.434-1.677 1.59-2.971 4.066-4.517 3.922-5.457z"/>
        <path fill="#401900" d="M22.496 0C6.233 0 4.064 14.2 4.064 24.665s5.418 16.541 9.65 18.239c0 0-6.758-11.978-3.434-23.066 2.72-9.072 12.216-6.393 12.216-6.393s9.495-2.68 12.216 6.393c3.325 11.088-3.434 23.066-3.434 23.066 4.233-1.698 9.65-7.774 9.65-18.24C40.928 14.2 38.76 0 22.496 0z"/>
        <path fill="#401900" d="M27.996 15.95s-6.104 3.06-11.495 2.446c-5.39-.615-7.46 4.974-7.132 8.673L7.57 18.837l3.253-6.513 9.27-4.77 8.76.404 4.153 3.607 3.527 4.385 2.48 2.887-1.193 8.883-2.525 3.037s2.285-11.398-7.3-14.807z"/>
    </g>
</svg>
