<svg xmlns="http://www.w3.org/2000/svg" width="96" height="132" viewBox="0 0 96 132">
    <g fill="none" fill-rule="evenodd" stroke="#0A2C4D">
        <path stroke-width="10" d="M88 16.314H8a3 3 0 0 0-3 3V124a3 3 0 0 0 3 3h80a3 3 0 0 0 3-3V19.314a3 3 0 0 0-3-3zM61 5V3.95c.19-.195.359-.412.5-.646.141.234.31.451.5.645V5h-1zM34 5V3.95c.19-.195.359-.412.5-.646.141.234.31.451.5.645V5h-1z" opacity=".1"/>
        <path stroke-dasharray="2,5" stroke-linecap="round" stroke-linejoin="round" stroke-width="3" d="M59.58 51.19c-3.312-.581-6.72.196-9.454 2.158a1.955 1.955 0 0 1-2.257 0 12.482 12.482 0 0 0-9.455-2.158 12.608 12.608 0 0 0-9.125 6.877 12.659 12.659 0 0 0 .159 11.443 33.954 33.954 0 0 1 3.976 12.552l.499 5.158a6.517 6.517 0 0 0 6.77 5.66 6.522 6.522 0 0 0 6.195-6.29v-6.107c0-1.163.94-2.106 2.1-2.106 1.161 0 2.102.943 2.102 2.106v6.107a6.52 6.52 0 0 0 6.196 6.402 6.518 6.518 0 0 0 6.787-5.77l.497-5.158a33.972 33.972 0 0 1 3.978-12.554 12.653 12.653 0 0 0 .165-11.446 12.6 12.6 0 0 0-9.133-6.874z" opacity=".15"/>
    </g>
</svg>
