<svg xmlns="http://www.w3.org/2000/svg" width="9" height="9" viewBox="0 0 9 9">
    <g fill="none" fill-rule="evenodd" transform="translate(-378 -393)">
        <path fill="#EDEFF0" d="M0 0h1440v1024H0z"/>
        <path fill="#FFF" d="M280.256 344h342.488c3.567 0 4.86.371 6.163 1.069a7.27 7.27 0 0 1 3.024 3.024c.698 1.303 1.069 2.596 1.069 6.163v210.488c0 3.567-.371 4.86-1.069 6.163a7.27 7.27 0 0 1-3.024 3.024c-1.303.698-2.596 1.069-6.163 1.069H280.256c-3.567 0-4.86-.371-6.163-1.069a7.27 7.27 0 0 1-3.024-3.024c-.698-1.303-1.069-2.596-1.069-6.163V354.256c0-3.567.371-4.86 1.069-6.163a7.27 7.27 0 0 1 3.024-3.024c1.303-.698 2.596-1.069 6.163-1.069z"/>
        <circle cx="382.5" cy="397.5" r="6.5" fill="#F3F5F6"/>
        <path fill="#A9B8C3" fill-rule="nonzero" d="M382.5 393a4.5 4.5 0 1 0 0 9 4.5 4.5 0 0 0 0-9zm.015 6.545H380.455c0-1.287 1.304-1.286 1.593-1.623l.034-.153c-.407-.179-.694-.61-.694-1.113 0-.664.498-1.201 1.112-1.201.614 0 1.112.537 1.112 1.2 0 .5-.282.928-.683 1.11l.038.174c.317.32 1.578.341 1.578 1.606h-2.03z"/>
    </g>
</svg>
